<?xml version="1.0" encoding="UTF-8"?>
<svg id="Layer_2" data-name="Layer 2" xmlns="http://www.w3.org/2000/svg" viewBox="0 0 315 274">
  <defs>
    <style>
      .cls-1 {
        fill: #99addf;
      }

      .cls-2 {
        fill: #e64fff;
      }

      .cls-3 {
        fill: #ffb800;
      }

      .cls-4 {
        fill: #fff;
      }

      .cls-5 {
        fill: #6c88cf;
      }

      .cls-6 {
        fill: none;
      }

      .cls-6, .cls-7 {
        stroke: #fff;
        stroke-linecap: round;
        stroke-linejoin: round;
      }

      .cls-7 {
        fill: #17ff5f;
      }
    </style>
  </defs>
  <g id="Layer_4" data-name="Layer 4">
    <g>
      <g>
        <path class="cls-5" d="M15.48,271.5c-7.15,0-12.98-5.82-12.98-12.98V15.48c0-7.16,5.82-12.98,12.98-12.98h239.05c7.15,0,12.98,5.82,12.98,12.98v14.8c0,4.96,2.08,9.76,5.71,13.14l35.17,32.82c2.62,2.44,4.12,5.9,4.12,9.49v50.55c0,3.58-1.5,7.04-4.12,9.49l-35.17,32.82c-3.63,3.39-5.71,8.18-5.71,13.14v66.8c0,7.16-5.82,12.98-12.98,12.98H15.48Z"/>
        <path class="cls-1" d="M254.52,5c5.78,0,10.48,4.7,10.48,10.48v14.8c0,5.65,2.37,11.11,6.5,14.97l35.17,32.82c2.12,1.97,3.33,4.77,3.33,7.66v50.55c0,2.89-1.21,5.68-3.33,7.66l-35.17,32.82c-4.13,3.86-6.5,9.31-6.5,14.97v66.8c0,5.78-4.7,10.48-10.48,10.48H15.48c-5.78,0-10.48-4.7-10.48-10.48V15.48c0-5.78,4.7-10.48,10.48-10.48h239.05M254.52,0H15.48C6.93,0,0,6.93,0,15.48v243.05c0,8.55,6.93,15.48,15.48,15.48h239.05c8.55,0,15.48-6.93,15.48-15.48v-66.8c0-4.29,1.78-8.39,4.92-11.31l35.17-32.82c3.14-2.93,4.92-7.02,4.92-11.31v-50.55c0-4.29-1.78-8.39-4.92-11.31l-35.17-32.82c-3.14-2.93-4.92-7.02-4.92-11.31v-14.8c0-8.55-6.93-15.48-15.48-15.48h0Z"/>
      </g>
      <g>
        <g>
          <path class="cls-2" d="M73.22,125.84c-8.27,0-15-6.73-15-15s6.73-15,15-15,15,6.73,15,15c0,2.63-.69,5.22-2,7.49-2.67,4.63-7.66,7.51-13,7.51Z"/>
          <path class="cls-4" d="M73.22,96.34c8,0,14.5,6.5,14.5,14.5,0,2.55-.67,5.05-1.93,7.24-2.59,4.48-7.4,7.26-12.57,7.26-8,0-14.5-6.5-14.5-14.5s6.5-14.5,14.5-14.5M73.22,95.34c-8.56,0-15.5,6.94-15.5,15.5s6.94,15.5,15.5,15.5c5.74,0,10.75-3.12,13.43-7.76,1.31-2.28,2.07-4.92,2.07-7.74,0-8.56-6.94-15.5-15.5-15.5h0Z"/>
        </g>
        <line class="cls-7" x1="86.65" y1="118.58" x2="94.72" y2="123.34"/>
        <polygon class="cls-6" points="115.62 110.98 94.5 123.18 94.5 147.56 115.62 159.75 136.73 147.56 136.73 123.18 115.62 110.98"/>
        <polyline class="cls-6" points="136.73 147.56 158.04 159.97 179.37 147.41 187.76 152.43"/>
        <line class="cls-6" x1="158.35" y1="154.95" x2="176.49" y2="144.25"/>
        <g>
          <path class="cls-3" d="M200.73,174.9c-8.27,0-15-6.73-15-15s6.73-15,15-15,15,6.73,15,15c0,2.63-.69,5.22-2,7.49-2.68,4.63-7.66,7.51-13,7.51Z"/>
          <path class="cls-4" d="M200.73,145.4c8,0,14.5,6.5,14.5,14.5,0,2.55-.67,5.05-1.93,7.24-2.59,4.48-7.4,7.26-12.57,7.26-8,0-14.5-6.5-14.5-14.5s6.5-14.5,14.5-14.5M200.73,144.4c-8.56,0-15.5,6.94-15.5,15.5s6.94,15.5,15.5,15.5c5.74,0,10.75-3.12,13.43-7.76,1.31-2.28,2.07-4.92,2.07-7.74,0-8.56-6.94-15.5-15.5-15.5h0Z"/>
        </g>
        <line class="cls-6" x1="115.95" y1="116.24" x2="131.96" y2="125.59"/>
        <line class="cls-6" x1="98.5" y1="126.22" x2="98.5" y2="144.94"/>
        <line class="cls-6" x1="131.96" y1="145.39" x2="115.86" y2="154.74"/>
      </g>
    </g>
  </g>
</svg>